<svg width="15" height="14" viewBox="0 0 15 14" fill="none" xmlns="http://www.w3.org/2000/svg">
<path fill-rule="evenodd" clip-rule="evenodd" d="M7.77565 14C3.91774 14 0.779297 10.8599 0.779297 7C0.779297 3.14008 3.91774 0 7.77565 0C11.6336 0 14.772 3.14008 14.772 7C14.772 10.8599 11.6336 14 7.77565 14ZM10.1078 9.91667C9.95851 9.91667 9.80926 9.8595 9.69557 9.74575L7.36403 7.413C7.30981 7.35875 7.26725 7.29458 7.23751 7.22283C7.20778 7.15167 7.19262 7.07583 7.19262 7V2.91667C7.19262 2.59467 7.45323 2.33333 7.77565 2.33333C8.09806 2.33333 8.35868 2.59467 8.35868 2.91667V6.7585L10.52 8.92092C10.7479 9.149 10.7479 9.51767 10.52 9.74575C10.4063 9.8595 10.257 9.91667 10.1078 9.91667Z" fill="#C4C4C4"/>
</svg>
