<svg width="24" height="22" viewBox="0 0 24 22" fill="none" xmlns="http://www.w3.org/2000/svg">
<path fill-rule="evenodd" clip-rule="evenodd" d="M23 21.578H1C0.448 21.578 0 21.1386 0 20.595V18.4896C0 15.4778 2.508 9.78252 12 9.78252C21.492 9.78252 24 15.4778 24 18.4896V20.595C24 21.1386 23.552 21.578 23 21.578ZM22 18.4896C22 16.157 19.91 11.7484 12 11.7484C4.09 11.7484 2 16.157 2 18.4896V19.6121H22V18.4896ZM12 12.7314C14.851 12.7314 17 13.9994 17 15.6803C17 17.3611 14.851 18.6291 12 18.6291C9.149 18.6291 7 17.3611 7 15.6803C7 13.9994 9.149 12.7314 12 12.7314ZM12 16.6632C13.936 16.6632 15 15.925 15 15.6803C15 15.4355 13.936 14.6973 12 14.6973C10.064 14.6973 9 15.4355 9 15.6803C9 15.925 10.064 16.6632 12 16.6632ZM23.25 9.96044C23.162 10.4323 22.742 10.7655 22.268 10.7655C22.216 10.7655 22.165 10.7615 22.113 10.7537L16.98 9.96732C16.576 9.90539 16.251 9.60756 16.159 9.21634L15.604 6.83365H8.396L7.841 9.21634C7.749 9.60756 7.424 9.90539 7.02 9.96732L1.887 10.7537C1.356 10.8313 0.848 10.4834 0.75 9.96044L0.017 6.02861C0.005 5.96963 0 5.91066 0 5.8507C0 2.77404 6.136 0.935913 12.068 0.935913C17.933 0.937879 23.999 2.77601 24 5.8507C24 5.91066 23.995 5.96963 23.983 6.02861L23.25 9.96044ZM12.068 2.90183C5.94 2.90183 2.167 4.86184 2.005 5.79074L2.542 8.6649L6.043 8.12722L6.625 5.63051C6.729 5.18425 7.133 4.86774 7.6 4.86774H16.4C16.867 4.86774 17.271 5.18425 17.375 5.63051L17.957 8.12722L21.458 8.6649L21.995 5.78779C21.839 4.76158 18.006 2.90379 12.068 2.90183Z" fill="#E23E57"/>
</svg>
