<svg width="36" height="48" viewBox="0 0 36 48" fill="none" xmlns="http://www.w3.org/2000/svg">
<path d="M18 47.5C18.3478 47.5 18.6958 47.3787 18.9769 47.1381C19.3104 46.8515 23.4519 43.2519 27.5076 37.8768C31.5767 32.4841 35.5 25.3817 35.5 18.086C35.5 8.38787 27.6476 0.5 18 0.5C8.35241 0.5 0.5 8.38787 0.5 18.086C0.5 25.3817 4.42333 32.4841 8.49238 37.8768C12.5481 43.2519 16.6896 46.8515 17.0231 47.1381L18 47.5ZM18 47.5C17.6525 47.5 17.3049 47.3789 17.0239 47.1388L18 47.5Z" fill="#484848" stroke="white"/>
<path d="M14.5775 26.2737C14.7262 26.4338 14.7175 26.6874 14.5577 26.8365L13.6943 27.6438C13.5346 27.7928 13.2822 27.7841 13.1335 27.6235L8.10579 22.2051C7.95714 22.0449 7.96628 21.7917 8.12606 21.6422L8.99058 20.8362C9.15037 20.6867 9.40277 20.6958 9.55142 20.8564L14.5775 26.2737ZM20.9929 16.0783C21.1415 16.2385 21.1324 16.4921 20.9726 16.6412L15.539 21.717C15.3793 21.866 15.1269 21.8573 14.9782 21.6967L13.6812 20.2972C13.5326 20.137 13.5417 19.8834 13.7015 19.7343L19.1338 14.6585C19.2932 14.5095 19.5456 14.5182 19.6943 14.6788L20.9929 16.0783ZM16.4262 24.5458C16.5749 24.706 16.5657 24.9592 16.4059 25.1087L15.5414 25.9155C15.3816 26.065 15.1292 26.0558 14.9806 25.8953L9.95566 20.4768C9.807 20.3167 9.81575 20.0631 9.97553 19.914L10.8385 19.1075C10.9982 18.9585 11.2506 18.9672 11.3993 19.1278L16.4262 24.5458ZM24.7983 16.2727C24.947 16.4329 24.9378 16.6865 24.7776 16.8355L23.9135 17.6424C23.7537 17.7915 23.5013 17.7827 23.3523 17.6225L18.3266 12.2053C18.1775 12.0451 18.1867 11.7919 18.3464 11.6425L19.2129 10.8336C19.3723 10.6846 19.6247 10.6933 19.7734 10.8539L24.7983 16.2727ZM26.6442 14.5477C26.7929 14.7078 26.7837 14.9614 26.6239 15.1109L25.7614 15.9174C25.602 16.0668 25.3496 16.0577 25.201 15.8975L20.176 10.4779C20.0274 10.3177 20.0361 10.0641 20.1959 9.91465L21.0592 9.10657C21.2186 8.95712 21.4706 8.96587 21.6193 9.12645L26.6442 14.5477Z" fill="white"/>
</svg>
