<svg width="36" height="48" viewBox="0 0 36 48" fill="none" xmlns="http://www.w3.org/2000/svg">
<path d="M18 47.5C18.3478 47.5 18.6958 47.3787 18.9769 47.1381C19.3104 46.8515 23.4519 43.2519 27.5076 37.8768C31.5767 32.4841 35.5 25.3817 35.5 18.086C35.5 8.38787 27.6476 0.5 18 0.5C8.35241 0.5 0.5 8.38787 0.5 18.086C0.5 25.3817 4.42333 32.4841 8.49238 37.8768C12.5481 43.2519 16.6896 46.8515 17.0231 47.1381L18 47.5ZM18 47.5C17.6525 47.5 17.3049 47.3789 17.0239 47.1388L18 47.5Z" fill="#484848" stroke="white"/>
<path d="M18.0972 7.83545L8.40039 16.1998H10.8004V26.1998H25.2004V16.1998H27.6004L18.0972 7.83545Z" fill="white"/>
</svg>
