<svg width="36" height="48" viewBox="0 0 36 48" fill="none" xmlns="http://www.w3.org/2000/svg">
<path d="M18 47.5C18.3478 47.5 18.6958 47.3787 18.9769 47.1381C19.3104 46.8515 23.4519 43.2519 27.5076 37.8768C31.5767 32.4841 35.5 25.3817 35.5 18.086C35.5 8.38787 27.6476 0.5 18 0.5C8.35241 0.5 0.5 8.38787 0.5 18.086C0.5 25.3817 4.42333 32.4841 8.49238 37.8768C12.5481 43.2519 16.6896 46.8515 17.0231 47.1381L18 47.5ZM18 47.5C17.6525 47.5 17.3049 47.3789 17.0239 47.1388L18 47.5Z" fill="#484848" stroke="white"/>
<path d="M23.0091 10.6001H11.3221V21.6843C11.3221 22.5875 12.0734 23.3264 12.9917 23.3264H21.3395C22.2578 23.3264 23.0091 22.5875 23.0091 21.6843V19.6317C25.5452 19.6317 27.6004 17.6098 27.6004 15.1159C27.6004 12.6219 25.5452 10.6001 23.0091 10.6001ZM23.0091 17.579V12.6527C24.3923 12.6527 25.5134 13.7554 25.5134 15.1159C25.5134 16.476 24.3923 17.579 23.0091 17.579ZM8.40039 24.1475V25.0921C8.40039 25.8704 9.26397 26.2001 10.3204 26.2001H25.6804C26.7364 26.2001 27.6004 25.8704 27.6004 25.0921V24.1475H8.40039Z" fill="white"/>
</svg>
