<svg width="36" height="48" viewBox="0 0 36 48" fill="none" xmlns="http://www.w3.org/2000/svg">
<path d="M18 47.5C18.3478 47.5 18.6958 47.3787 18.9769 47.1381C19.3104 46.8515 23.4519 43.2519 27.5076 37.8768C31.5767 32.4841 35.5 25.3817 35.5 18.086C35.5 8.38787 27.6476 0.5 18 0.5C8.35241 0.5 0.5 8.38787 0.5 18.086C0.5 25.3817 4.42333 32.4841 8.49238 37.8768C12.5481 43.2519 16.6896 46.8515 17.0231 47.1381L18 47.5ZM18 47.5C17.6525 47.5 17.3049 47.3789 17.0239 47.1388L18 47.5Z" fill="#484848" stroke="white"/>
<path d="M16.6 11.3884V16.0001H15.6667V11.4168C15.6667 11.1868 15.4576 11.0001 15.2 11.0001C14.9424 11.0001 14.7333 11.1868 14.7333 11.4168V16.0001H13.8V11.4018C13.8 10.8655 12.8667 10.8839 12.8667 11.388V16.0001H11.9333V11.4209C11.9333 10.853 11 10.8739 11 11.3984V17.4284C11 18.298 11.9333 18.8713 12.8667 18.8713V29.75C12.8667 31.4167 15.6667 31.4167 15.6667 29.75V18.8717C16.6 18.8717 17.5333 18.1792 17.5333 17.5272V11.4018C17.5333 10.8705 16.6 10.8909 16.6 11.3884ZM20.8 12.6668V23.0834H21.7333V29.75C21.7333 31.4167 25 31.4167 25 29.75V12.6668C25 10.5834 20.8 10.5834 20.8 12.6668Z" fill="white"/>
</svg>
