<svg width="24" height="16" viewBox="0 0 24 16" fill="none" xmlns="http://www.w3.org/2000/svg">
<path d="M23.9968 0.000610352H0V16H23.9968V0.000610352Z" fill="#F0F0F0"/>
<path d="M13.4982 0H10.4986V6.49964H0V9.4995H10.4986V15.9991H13.4982V9.4995H23.9968V6.49964H13.4982V0Z" fill="#D80027"/>
<path d="M18.457 10.782L23.9976 13.8604V10.782H18.457Z" fill="#0052B4"/>
<path d="M14.6055 10.782L23.9955 15.9991V14.5238L17.2608 10.782H14.6055Z" fill="#0052B4"/>
<path d="M21.4943 15.9991L14.6055 12.1713V15.9991H21.4943Z" fill="#0052B4"/>
<path d="M14.6074 10.7821L23.9975 15.9992V14.5239L17.2628 10.7821H14.6074Z" fill="#F0F0F0"/>
<path d="M14.6074 10.7821L23.9975 15.9992V14.5239L17.2628 10.7821H14.6074Z" fill="#D80027"/>
<path d="M4.23417 10.782L0 13.1345V10.782H4.23417Z" fill="#0052B4"/>
<path d="M9.3887 11.4454V15.9992H1.19336L9.3887 11.4454Z" fill="#0052B4"/>
<path d="M6.73472 10.7821L0 14.5239V15.9992L9.39007 10.7821H6.73472Z" fill="#D80027"/>
<path d="M5.54059 5.21708L0 2.13867V5.21708H5.54059Z" fill="#0052B4"/>
<path d="M9.39007 5.21711L0 0V1.47527L6.73472 5.21711H9.39007Z" fill="#0052B4"/>
<path d="M2.50195 0L9.39082 3.82781V0H2.50195Z" fill="#0052B4"/>
<path d="M9.39007 5.21711L0 0V1.47527L6.73472 5.21711H9.39007Z" fill="#F0F0F0"/>
<path d="M9.39007 5.21711L0 0V1.47527L6.73472 5.21711H9.39007Z" fill="#D80027"/>
<path d="M19.7617 5.21716L23.9959 2.86462V5.21716H19.7617Z" fill="#0052B4"/>
<path d="M14.6074 4.55373V0H22.8028L14.6074 4.55373Z" fill="#0052B4"/>
<path d="M17.2628 5.21711L23.9975 1.47527V0L14.6074 5.21711H17.2628Z" fill="#D80027"/>
</svg>
